HIERARCHY
ROOT Hips
{
  OFFSET -187.679 86.5976 -156.378
  CHANNELS 6 Xposition Yposition Zposition Zrotation Xrotation Yrotation
  JOINT LeftUpLeg
  {
    OFFSET 8.64259 1.95398 -2.38835
    CHANNELS 3 Zrotation Xrotation Yrotation
    JOINT LeftLeg
    {
      OFFSET 43.7702 0 0
      CHANNELS 3 Zrotation Xrotation Yrotation
      JOINT LeftFoot
      {
        OFFSET 40.6238 0 0
        CHANNELS 3 Zrotation Xrotation Yrotation
        JOINT LeftToeBase
        {
          OFFSET 12.7242 0 0
          CHANNELS 3 Zrotation Xrotation Yrotation
          End Site
          {
            OFFSET 0 0 0
          }
        }
      }
    }
  }
  JOINT RightUpLeg
  {
    OFFSET -8.2249 1.95398 -2.59336
    CHANNELS 3 Zrotation Xrotation Yrotation
    JOINT RightLeg
    {
      OFFSET 43.5653 0 0
      CHANNELS 3 Zrotation Xrotation Yrotation
      JOINT RightFoot
      {
        OFFSET 40.6238 0 0
        CHANNELS 3 Zrotation Xrotation Yrotation
        JOINT RightToeBase
        {
          OFFSET 12.7242 0 0
          CHANNELS 3 Zrotation Xrotation Yrotation
          End Site
          {
            OFFSET 0 0 0
          }
        }
      }
    }
  }
  JOINT Spine
  {
    OFFSET 0.165834 0.87714 6.61349
    CHANNELS 3 Zrotation Xrotation Yrotation
    JOINT Spine1
    {
      OFFSET 7.38963 1.71661e-005 0
      CHANNELS 3 Zrotation Xrotation Yrotation
      JOINT Spine2
      {
        OFFSET 11.9445 1.14441e-005 0
        CHANNELS 3 Zrotation Xrotation Yrotation
        JOINT Spine3
        {
          OFFSET 14.7254 4.19617e-005 0
          CHANNELS 3 Zrotation Xrotation Yrotation
          JOINT Spine4
          {
            OFFSET 10.9679 0 0
            CHANNELS 3 Zrotation Xrotation Yrotation
            JOINT RightShoulder
            {
              OFFSET 2.46616 -1.6653 3.69651
              CHANNELS 3 Zrotation Xrotation Yrotation
              JOINT RightArm
              {
                OFFSET 13.0012 0 0
                CHANNELS 3 Zrotation Xrotation Yrotation
                JOINT RightForeArm
                {
                  OFFSET 28.7848 1.52588e-005 0
                  CHANNELS 3 Zrotation Xrotation Yrotation
                  JOINT RightHand
                  {
                    OFFSET 26.5688 1.52588e-005 0
                    CHANNELS 3 Zrotation Xrotation Yrotation
                    End Site
                    {
                      OFFSET 0 0 0
                    }
                  }
                }
              }
            }
            JOINT LeftShoulder
            {
              OFFSET 2.38034 -1.29275 -3.7523
              CHANNELS 3 Zrotation Xrotation Yrotation
              JOINT LeftArm
              {
                OFFSET 16.3182 6.10352e-005 0
                CHANNELS 3 Zrotation Xrotation Yrotation
                JOINT LeftForeArm
                {
                  OFFSET 27.0901 0 0
                  CHANNELS 3 Zrotation Xrotation Yrotation
                  JOINT LeftHand
                  {
                    OFFSET 24.5451 1.52588e-005 0
                    CHANNELS 3 Zrotation Xrotation Yrotation
                    End Site
                    {
                      OFFSET 0 0 0
                    }
                  }
                }
              }
            }
            JOINT Neck
            {
              OFFSET 5.0226 -0.0266342 0
              CHANNELS 3 Zrotation Xrotation Yrotation
              JOINT Head
              {
                OFFSET 6.69363 2.86102e-005 0
                CHANNELS 3 Zrotation Xrotation Yrotation
                End Site
                {
                  OFFSET 0 0 0
                }
              }
            }
          }
        }
      }
    }
  }
}
MOTION
Frames:	18
Frame Time:	0.0416667
-242.047 98.6467 215.49 92.1108 14.8287 87.9222 -176.396 -4.38596 87.9532 -7.57452 8.25198 8.85791 67.8236 3.97228 -1.53439 18.4229 -7.40013 7.35908 174.845 3.24637 88.8246 -17.2462 -11.0852 -0.381297 65.9629 -2.47733 1.43177 22.8866 -0.344424 -1.67067 -0.282397 7.17757 -89.8737 12.5195 -0.500652 0.3102 0.848567 -0.486503 0.331933 -21.6873 -0.570745 0.145389 -1.67463 -0.57074 0.145391 91.3181 -45.3431 -99.6307 33.6949 -17.4776 -10.6598 -17.8287 -17.0238 -17.1034 -10.4028 -0.100367 -4.04468 -85.3509 -38.8033 84.1741 -39.3365 15.952 1.87122 6.1695 -15.4399 -18.9205 -0.272948 -0.100811 -4.95634 -3.44724 -34.4072 -29.8541 13.3597 -29.6019 10.3312 
-241.852 98.5489 215.556 92.427 15.2132 87.9901 -176.137 -4.63919 88.4249 -7.59901 8.16624 8.79383 68.1701 3.88242 -2.58695 17.7174 -6.16386 3.92635 174.887 2.48885 88.9846 -16.3532 -6.65755 -0.00139707 67.0178 -2.80772 3.69974 21.6666 -1.60288 1.37923 -0.288097 7.23116 -89.8819 12.4123 -0.516162 0.294904 0.741387 -0.502653 0.317326 -21.7945 -0.580928 0.126143 -1.78188 -0.5809 0.126139 91.1984 -45.6753 -99.7472 33.393 -17.7186 -10.8718 -17.7815 -17.1438 -17.1821 -10.2345 -0.110154 -3.95102 -85.3314 -38.706 84.1902 -39.4746 15.7983 2.1994 7.99081 -11.6147 -19.436 -3.56479 -0.0878535 -3.80586 -3.48223 -34.4061 -30.2721 13.3232 -29.5527 10.4773 
-241.596 98.5884 215.605 92.1243 15.925 87.9914 -175.963 -4.37638 88.6084 -7.6822 9.13726 8.61294 68.272 3.98532 -2.27336 17.0935 -6.39662 3.81247 174.886 2.75586 89.0301 -16.9258 -9.67682 -0.223495 66.4827 -2.6332 1.70383 22.8839 -0.503754 -1.19671 -0.297503 7.19683 -89.8965 12.4809 -0.541401 0.269121 0.810077 -0.529039 0.292686 -21.7259 -0.597269 0.0939562 -1.71329 -0.597263 0.0939568 91.2509 -45.5096 -99.701 33.516 -16.8849 -10.7641 -17.6481 -15.8984 -16.7531 -11.5195 -0.245164 -3.23604 -85.648 -39.1225 83.7211 -39.2646 15.9713 2.18026 7.2861 -13.389 -19.169 -2.93208 -0.0736325 -4.56875 -3.33396 -34.404 -29.9877 13.4359 -29.543 10.3677 
-241.209 98.5179 215.686 91.9869 16.4169 87.9363 -175.723 -4.32511 88.8358 -7.81357 10.1364 8.41367 68.3184 4.09896 -1.90242 17.0148 -6.3493 3.6335 174.868 2.63106 89.0561 -16.7395 -8.79084 -0.123434 67.3145 -2.88036 1.13466 22.0536 -1.3715 0.915585 -0.303475 7.18728 -89.9158 12.5 -0.562809 0.233135 0.82917 -0.552018 0.25767 -21.7069 -0.606863 0.0532084 -1.69431 -0.606861 0.0531956 91.6296 -44.8612 -99.235 33.9477 -16.297 -10.8264 -17.7818 -16.4863 -16.2742 -15.0719 -0.537265 -0.77889 -85.5701 -39.7609 83.9695 -38.8596 15.9903 2.60579 6.81538 -14.1276 -19.8811 -2.9385 -0.0738743 -3.76889 -2.0043 -34.4066 -29.1684 12.2481 -29.3754 10.6362 
-240.711 98.5227 216.017 91.6123 17.3159 88.337 -175.066 -3.91733 89.9106 -8.01199 11.1843 7.99751 68.8661 4.15031 -2.77478 16.7853 -6.58151 3.90529 175.323 2.66109 89.8268 -17.1309 -7.39137 -0.122333 66.9353 -2.72895 2.54278 22.8532 -0.1643 -2.21174 -0.294133 7.17456 -89.9205 12.5254 -0.546392 0.222129 0.854563 -0.536138 0.245965 -21.6815 -0.587919 0.0476257 -1.66885 -0.587925 0.0476328 91.4375 -45.3631 -99.4329 33.7469 -17.0761 -10.7518 -17.7628 -16.842 -16.8769 -11.7484 -0.0389383 -4.78014 -85.6861 -39.0578 83.6439 -39.2158 15.8428 2.16648 6.65763 -14.8924 -19.2932 -2.91812 -0.0792424 -3.3953 -2.41056 -34.6211 -30.3285 13.1297 -29.4295 11.0506 
-239.944 98.5174 216.279 92.1234 18.0589 88.1516 -174.455 -4.63104 90.5801 -8.19894 12.4787 7.73916 69.2184 4.33412 -2.65933 17.6676 -6.36179 4.31338 175.155 1.59295 89.9501 -17.0126 -6.9828 0.146915 67.7312 -2.95824 1.59237 22.1937 -0.648239 -1.07969 -0.252989 7.23488 -89.9089 12.4047 -0.459352 0.234399 0.733812 -0.448586 0.254383 -21.802 -0.508563 0.085502 -1.78932 -0.508578 0.0854989 91.7902 -45.1594 -98.9055 34.4407 -17.2161 -10.6596 -17.2965 -16.0858 -16.0001 -9.85838 -0.101668 -3.97397 -85.893 -39.6598 83.4021 -38.2916 15.7118 2.08462 6.62796 -14.9362 -19.12 -2.19564 -0.0849501 -2.67311 -2.31407 -34.8276 -30.234 13.1412 -29.6045 11.1997 
-238.918 98.4363 216.523 93.338 19.3984 87.2793 -173.734 -5.75263 91.1828 -8.92106 14.4407 7.36862 69.513 4.3586 -3.48877 18.5191 -6.67502 5.87354 174.686 -0.100879 89.9766 -17.3572 -6.07924 0.440842 68.7033 -3.22839 1.69344 21.9887 -0.629179 -1.22187 -0.257243 7.38516 -89.7871 12.1045 -0.410646 0.470871 0.433543 -0.389531 0.488484 -22.1018 -0.533172 0.325685 -2.08911 -0.533183 0.325682 91.1888 -45.7577 -99.7438 34.2295 -17.4702 -10.3854 -17.053 -14.8341 -15.9406 -10.2065 -0.0339982 -4.78425 -85.576 -39.2371 83.8651 -37.8137 15.6471 1.88768 6.23366 -15.728 -19.3166 -2.19278 -0.0851391 -3.32578 -2.92744 -34.5006 -30.4638 13.3081 -29.4459 10.7853 
-237.686 98.312 217.02 94.4991 21.1655 86.5033 -172.992 -6.40508 92.0117 -10.2558 16.9119 7.21062 70.0084 4.91025 -2.60908 18.0563 -6.06805 4.06171 174.526 -1.64567 89.8384 -18.0005 -4.18318 0.735559 69.6594 -3.4009 1.802 22.0148 -0.610378 -1.26221 -0.238406 7.50306 -89.6942 11.8682 -0.330055 0.645012 0.197161 -0.301352 0.658911 -22.3374 -0.508633 0.516012 -2.32479 -0.508667 0.515999 90.5779 -46.2145 -100.616 34.139 -17.5958 -9.86843 -17.5772 -16.9601 -16.9564 -12.3239 -0.289457 -2.38788 -85.8603 -39.5478 83.4371 -36.5548 15.2861 1.89243 5.77758 -17.2396 -18.7437 -1.09129 -0.0975849 -4.94994 -3.6234 -33.7178 -29.0834 13.0039 -29.1888 9.34608 
-236.694 97.7977 217.441 95.0151 23.3565 85.6641 -173.23 -3.31853 93.0739 -17.0727 18.0306 5.72693 72.5694 6.85822 -2.30137 20.3312 -5.50009 5.15115 173.8 -1.54255 89.5153 -19.976 -2.74891 1.53518 72.0855 -3.87324 0.0161778 21.6562 -2.17757 2.98843 -0.168965 7.54491 -89.6211 11.784 -0.157935 0.772114 0.112801 -0.12378 0.778309 -22.4209 -0.382655 0.688962 -2.40824 -0.382663 0.688964 90.0237 -46.4905 -101.433 33.5658 -17.6662 -9.92181 -16.7292 -13.4555 -16.0883 -13.213 -0.249904 -2.8833 -86.0748 -39.8171 83.1227 -35.6278 14.8055 2.35588 6.19023 -17.0552 -17.9872 -0.0539784 -0.0767186 -3.6929 -3.05989 -30.438 -24.105 11.5926 -26.6435 7.09972 
-235.872 97.2096 217.576 96.1504 27.0137 84.5923 -174.392 3.3685 93.4746 -30.913 20.4923 6.09387 72.1288 6.53851 -2.64228 21.3533 -4.62948 4.17676 172.314 -2.15273 88.6451 -22.3852 -0.264874 3.22191 74.214 -3.91283 2.17161 21.6737 -1.17679 0.198973 -0.0964108 7.68246 -89.6569 11.5085 -0.0312972 0.686495 -0.162607 -0.00104792 0.687205 -22.6965 -0.236144 0.645363 -2.68383 -0.236164 0.645355 89.6399 -46.438 -102.058 32.3362 -17.8972 -10.259 -16.5153 -10.9875 -16.2769 -13.0228 -0.239868 -3.06223 -86.0637 -40.1796 83.2093 -35.2018 13.8564 2.24007 5.9761 -17.2392 -17.8882 -0.238007 -0.0790276 -4.53596 -1.33467 -24.0525 -17.4096 9.11507 -21.093 4.67666 
-234.901 97.0259 217.366 96.8819 30.0607 83.1694 -174.958 11.9636 91.7786 -43.8663 22.7288 6.27934 70.0252 5.1182 -2.03372 18.5974 -6.49425 5.58098 171.87 -3.35202 88.0928 -22.1576 3.12961 3.56989 75.1652 -3.9083 1.21216 22.3215 -2.34728 3.82444 0.177695 7.81206 -89.6728 11.248 0.505803 0.601711 -0.423004 0.5318 0.578865 -22.9572 0.301592 0.725909 -2.94453 0.301599 0.725907 88.6747 -46.8918 -103.466 30.033 -18.8059 -10.3987 -17.4618 -11.0596 -19.2601 -8.99555 -0.00685435 -5.08526 -85.7774 -40.0843 83.677 -35.4714 13.1249 1.8832 6.52939 -16.5624 -16.6099 0.702468 -0.0383769 -3.04213 -0.24356 -16.8313 -12.005 6.86295 -14.7738 2.46725 
-233.934 97.1815 216.308 96.7332 31.8791 80.6966 -175.583 17.0644 88.4837 -42.5511 24.9965 4.53975 68.3179 4.2548 -1.55354 22.6118 -5.52191 7.79147 170.704 -3.78168 85.5694 -22.22 4.15234 3.29636 75.5247 -3.93668 1.61825 23.6571 -1.82455 3.05371 0.532186 7.87679 -89.4414 11.1148 1.31861 0.983895 -0.555819 1.36063 0.924895 -23.0912 0.961968 1.33468 -3.07859 0.961978 1.33468 88.3388 -46.7022 -104.051 29.2975 -19.578 -12.2365 -17.5026 -10.1276 -20.226 -9.21208 0.0165039 -5.46168 -85.9631 -39.9225 83.3325 -35.9696 13.0289 4.25031 6.09881 -17.1271 -17.6862 -1.48436 -0.0908726 -4.32441 -0.468387 -10.8767 -8.33475 7.11895 -9.45776 1.50631 
-232.577 97.4044 214.553 96.1762 34.1017 78.8941 -177.331 20.7757 85.0536 -33.8073 24.0499 3.49844 68.6347 3.99483 -3.18456 21.1947 -6.15361 7.63749 169.633 -5.12376 83.3795 -20.161 6.17735 3.124 75.6283 -4.11563 1.65883 24.6123 -1.75081 3.37742 0.743708 7.92289 -89.3002 11.0176 1.80481 1.21954 -0.652584 1.85675 1.13891 -23.1895 1.35489 1.70556 -3.17681 1.3549 1.70555 88.9043 -45.8629 -103.386 28.2814 -20.8762 -15.893 -17.7526 -9.06455 -22.2661 -10.3577 -0.022395 -4.95599 -86.062 -40.8068 83.3281 -35.7094 12.0877 6.34942 6.38255 -16.8238 -16.6352 -2.06649 -0.0871317 -4.32696 -0.325139 -7.464 -3.96407 7.64803 -6.79862 0.088204 
-230.528 97.1366 212.31 95.8566 35.1199 78.3899 -178.935 22.4473 83.4396 -21.8004 20.1329 2.8694 67.8231 4.82482 0.213258 22.9684 -3.40617 2.91972 169.13 -7.05373 82.4442 -19.0535 7.30959 2.80615 76.3062 -4.47546 1.63142 26.0629 -1.53099 3.54968 0.993097 8.01015 -89.3453 10.8428 2.27987 1.08916 -0.82654 2.32557 0.987722 -23.3694 1.84714 1.72409 -3.35677 1.84714 1.72409 89.7237 -44.4357 -102.444 26.7046 -22.3629 -19.9733 -18.1656 -8.91575 -24.2083 -10.9085 -0.14219 -3.64062 -85.8662 -42.2471 83.9102 -36.4006 11.8036 9.12846 6.30409 -16.9857 -16.925 -2.12555 -0.0880031 -3.4188 0.827916 -5.56493 0.194573 7.33819 -5.58311 -0.991181 
-227.429 96.4735 209.416 96.3783 35.2854 78.4068 179.769 22.4938 82.9508 -14.1276 15.4527 3.93631 67.8678 5.52252 2.6276 18.3708 -6.27286 4.84149 169.175 -11.0411 82.6604 -17.4034 7.89368 2.03914 77.377 -5.03565 0.373752 26.7911 -1.57725 4.15644 1.1941 8.05413 -89.3722 10.7549 2.66739 1.00185 -0.913609 2.70889 0.883401 -23.4623 2.24296 1.75743 -3.4497 2.24296 1.75743 86.8842 -46.9709 -106.265 22.8443 -21.2885 -21.0489 -18.9061 -6.94399 -27.6126 -11.7054 -0.216229 -2.94304 -86.4412 -42.2537 82.9663 -38.4966 11.2913 12.3624 6.30915 -16.9285 -16.2824 -2.59064 -0.088922 -3.36667 -0.844342 -4.15584 0.340378 9.60772 -4.18655 -0.468333 
-223.254 95.1603 205.644 95.9852 34.1566 79.4781 179.76 23.8518 83.8125 -15.1169 8.53051 4.06407 68.3619 4.68046 -1.22621 15.4002 -6.92679 3.30031 168.18 -14.9941 81.9434 -16.0574 7.36204 2.05309 78.6918 -5.74038 0.283678 28.9411 -1.36273 4.8771 1.31999 8.06603 -89.4229 10.7321 2.89461 0.881315 -0.935866 2.93059 0.752964 -23.489 2.49588 1.71093 -3.47639 2.49589 1.71092 86.9283 -46.4345 -106.357 21.651 -22.3202 -26.1485 -18.2029 -6.08474 -26.6204 -12.2481 -0.168577 -3.49805 -86.2757 -42.7804 83.333 -40.3254 10.8935 13.6621 6.62492 -16.3778 -14.9087 -2.80305 -0.0898136 -3.13206 0.306287 -2.81089 1.97149 9.10928 -3.15351 -1.05971 
-217.808 94.0369 200.646 94.8806 32.1398 80.5162 -178.584 24.1054 84.1589 -21.3526 8.07494 2.34862 65.6439 2.9323 -2.44805 16.7302 -4.77013 -0.0666564 166.621 -18.324 79.8738 -16.042 3.28868 1.3552 77.766 -5.52481 2.37419 30.9007 0.909933 -2.22255 1.50908 7.93828 -89.3536 10.9854 3.30364 0.97116 -0.68156 3.34321 0.824672 -23.2406 2.85899 1.91976 -3.22792 2.85898 1.91976 87.3342 -45.7992 -105.909 23.1054 -23.8313 -28.2403 -18.0076 -4.91512 -27.4296 -10.4036 -0.0184659 -5.00171 -85.9851 -43.1554 83.8727 -40.6269 9.85146 14.1817 6.53566 -17.6211 -13.7086 -3.77687 -0.0904211 -3.56525 2.05075 -1.71335 2.7561 8.44363 -2.26645 -1.5539 
-211.508 93.9842 194.201 93.1379 31.5174 81.2252 -177.686 25.0899 82.4847 -27.8825 14.9131 2.03299 65.0864 2.71279 -0.428038 14.249 -8.1823 4.76761 164.521 -18.1359 76.5138 -18.6579 -0.588968 0.598432 67.1805 -2.75721 -2.42573 43.5596 0.852411 8.48873 1.5436 7.58265 -89.1753 11.6924 3.45722 1.28252 0.0255751 3.51033 1.12896 -22.5326 2.91192 2.26282 -2.51996 2.91193 2.26282 87.2292 -45.6142 -106.134 26.3371 -25.6769 -26.1331 -17.4877 -4.43689 -26.9738 -10.0305 0.0327902 -5.62368 -85.9527 -44.218 84.1056 -37.8784 8.41045 14.2752 6.57482 -18.7789 -12.7684 -3.31338 -0.0906782 -3.43337 3.2448 -0.778307 3.32871 6.94274 -1.57191 -2.98051 
